# xmcd CD database file
#
# Track frame offsets:
#	150
#	16375
#	33587
#	48862
#	66802
#	90230
#	107840
#	122317
#	137670
#	149815
#
# Disc length: 2409 seconds
#
# Revision: 0
# Processed by: cddbd v1.5.1PL0 Copyright (c) Steve Scherf et al.
# Submitted via: CDex 1.51
#
DISCID=8309670a
DTITLE=Jack Bruce And Friends - I've Always Wanted To Do this
DYEAR=1980
DGENRE=Jazz
TTITLE0=Hit And Run
TTITLE1=Running Back
TTITLE2=Facelift 318
TTITLE3=In This Way
TTITLE4=Mickey The Fiddler
TTITLE5=Dancing On Air
TTITLE6=Livin' Without Ja
TTITLE7=Wind And The Sea
TTITLE8=Out To Lunch
TTITLE9=Bird Alone
EXTD=YEAR: 1980
EXTT0=
EXTT1=
EXTT2=
EXTT3=
EXTT4=
EXTT5=
EXTT6=
EXTT7=
EXTT8=
EXTT9=
PLAYORDER=
